<?xml version="1.0" encoding="UTF-8"?>
<!-- Generator: Adobe Illustrator 16.2.1, SVG Export Plug-In . SVG Version: 6.00 Build 0)  -->
<!DOCTYPE svg PUBLIC "-//W3C//DTD SVG 1.1//EN" "http://www.w3.org/Graphics/SVG/1.1/DTD/svg11.dtd">
<svg version="1.1" id="Logo" xmlns="http://www.w3.org/2000/svg" xmlns:xlink="http://www.w3.org/1999/xlink" x="0px" y="0px" width="595.275px" height="841.89px" viewBox="0 0 595.275 841.89" enable-background="new 0 0 595.275 841.89" xml:space="preserve">
<path d="M82.75,559.082h10.692v46.636h25.552v10.223H82.75V559.082z"/>
<path d="M165.848,559.082h12.617l18.878,56.858h-12.091l-3.521-11.688h-19.65l-3.617,11.688H146.8L165.848,559.082z   M165.114,594.454h13.666l-6.741-22.373L165.114,594.454z"/>
<path d="M264.2,565.138c1.566,2.418,2.35,5.312,2.35,8.68c0,3.472-0.791,6.263-2.37,8.371c-0.883,1.183-2.185,2.263-3.903,3.24  c2.611,1.055,4.582,2.726,5.911,5.014c1.329,2.29,1.994,5.067,1.994,8.332c0,3.37-0.76,6.392-2.278,9.065  c-0.967,1.774-2.175,3.267-3.625,4.475c-1.634,1.389-3.561,2.341-5.782,2.854c-2.221,0.515-4.631,0.771-7.23,0.771h-23.058v-56.858  h24.73C257.178,559.186,261.599,561.204,264.2,565.138z M236.415,568.957v12.536h12.438c2.222,0,4.025-0.469,5.412-1.407  c1.385-0.938,2.079-2.604,2.079-4.995c0-2.648-0.916-4.398-2.749-5.246c-1.581-0.592-3.597-0.888-6.047-0.888H236.415z   M236.415,590.905v15.16h12.424c2.219,0,3.946-0.334,5.182-1.003c2.242-1.234,3.363-3.6,3.363-7.098c0-2.957-1.087-4.988-3.26-6.095  c-1.213-0.617-2.917-0.938-5.114-0.965H236.415z"/>
<path d="M310.391,615.94h-10.623v-56.858h10.623V615.94z"/>
<path d="M381.825,559.082v10.067h-15.311v46.791h-10.762v-46.791h-15.38v-10.067H381.825z"/>
<path d="M420.961,559.082h12.099l18.105,56.858h-11.596l-3.377-11.688h-18.845l-3.469,11.688h-11.185L420.961,559.082z   M420.257,594.454h13.105l-6.465-22.373L420.257,594.454z"/>
<path d="M513.11,559.082v10.067H497.8v46.791h-10.762v-46.791h-15.38v-10.067H513.11z"/>
<g>
	<g id="g3104" transform="translate(-199.17072,-250.61113)">
		
			<path id="path3028" fill="#83981C" d="    M560.959,420.397c43.909,11.167,72.512,44.187,83.946,63.777c4.379,7.503,10.097,15.229,7.949,24.314    c-1.485,6.288-8.297,12.783-12.811,18.288c-5.09,6.208-9.553,11.122-13.374,15.847c14.053,2.821,19.428,3.646,40.231,8.909    c2.708,0.685,5.65,2.894,6.529,4.651c3.636,5.558,4.357,14.034,5.143,22.444c3.048,43.423-10.874,86.816-36.006,120.172    c-7.56,7.015-15.053,3.55-26.651,0.468c-12.173-3.364-42.404-12.392-55.479-16.323c-1.854,18.409-2.137,38.065-3.439,61.466    c-1.014,13.619,0.473,16.79-8.414,20.319c-27.842,11.841-99.405,13.912-140.832-13.035c-2.021-1.036-8.928-5.344-8.331-10.812    c1.26-11.413,2.132-14.467,3.274-21.509c1.175-7.261,1.856-14.125,3.273-21.043l-27.121,8.885    c-4.786,1.755-8.844,3.032-13.143,2.725c-4.298-0.306-8.142-1.831-10.705-4.595c-28.661-30.912-42.462-68.396-41.617-105.206    c1.015-6.598,1.441-14.223,6.077-18.237c3.1-2.68,7.776-3.965,12.506-5.811c14.016-5.133,31.065-11.477,45.477-16.633    c-1.001,3.518-2.292,7.402-2.337,11.223c-0.446,37.389,9.384,72.586,34.134,103.805c10.292-27.886,47.643-26.365,76.737-23.321    c15.706,1.554,47.734,8.419,66.347,21.451c-2.039-6.453-3.485-14.979-3.74-19.64c-1.468-13.421,0.791-33.495,4.529-48.085    c2.624-11.487,12.195-49.327,32.181-64.168c4.71-3.099,8.062-5.239,17.529-2.308c-1.329-2.837-2.825-5.088-4.85-7.806    c-8.657-10.314-21.213-23.241-29.499-30.016c-8.284-6.774-30.317-27.597-63.03-32.167c10.932-13.083,19.285-22.959,29.482-34.752    c5.996-6.901,11.872-11.686,14.551-12.61C552.153,420.141,556.498,419.261,560.959,420.397L560.959,420.397z"/>
		<path id="path3030" fill="#83981C" d="M449.918,436.481    c8.841,0.51,13.633,2.185,20.574,7.481c7.509,6.114,14.07,16.415,20.106,23.847c-32.804,3.356-57.728,14.593-76.687,31.796    c-12.871,11.85-24.538,28.709-30.86,43.487c-9.749-12.787-17.274-20.223-19.132-35.915c-2.557-21.589,20.663-43.056,34.112-52.954    C411.482,444.323,430.194,436.509,449.918,436.481L449.918,436.481z"/>
	</g>
</g>
<g>
	<path fill="#6D6E71" d="M83.14,638.089h1.9v-3.278l4.114-1.29v4.568h3.353v3.696h-3.353v7.602c0,0.999,0.098,1.708,0.293,2.127   c0.196,0.418,0.547,0.627,1.054,0.627c0.346,0,0.657-0.034,0.933-0.104c0.276-0.069,0.576-0.174,0.899-0.313l0.519,3.312   c-0.507,0.256-1.095,0.471-1.763,0.646c-0.669,0.174-1.371,0.261-2.108,0.261c-1.313,0-2.298-0.383-2.955-1.15   c-0.657-0.767-0.986-2.058-0.986-3.87v-9.136h-1.9V638.089z"/>
	<path fill="#6D6E71" d="M113.209,654.233c-0.577,0.512-1.36,0.93-2.351,1.255s-2.028,0.488-3.111,0.488   c-1.198,0-2.229-0.209-3.093-0.628c-0.864-0.418-1.573-1.022-2.125-1.812c-0.553-0.79-0.963-1.749-1.227-2.877   c-0.265-1.127-0.398-2.411-0.398-3.854c0-3.138,0.617-5.457,1.85-6.956c1.232-1.5,2.943-2.249,5.133-2.249   c0.737,0,1.451,0.11,2.143,0.331s1.308,0.593,1.849,1.116c0.541,0.522,0.979,1.22,1.313,2.092c0.333,0.872,0.501,1.97,0.501,3.295   c0,0.512-0.029,1.059-0.086,1.639c-0.058,0.582-0.145,1.209-0.26,1.884h-8.398c0.046,1.441,0.346,2.545,0.898,3.312   c0.553,0.767,1.439,1.15,2.661,1.15c0.737,0,1.412-0.116,2.022-0.349c0.61-0.232,1.077-0.477,1.399-0.732L113.209,654.233z    M107.817,641.157c-0.876,0-1.533,0.354-1.97,1.063s-0.691,1.703-0.761,2.981h4.77c0.069-1.325-0.069-2.33-0.415-3.017   C109.096,641.5,108.554,641.157,107.817,641.157z"/>
	<path fill="#6D6E71" d="M133.498,654.582c-0.577,0.465-1.268,0.813-2.074,1.046s-1.613,0.349-2.419,0.349   c-1.175,0-2.16-0.215-2.955-0.645c-0.795-0.431-1.446-1.047-1.953-1.849s-0.87-1.767-1.088-2.895   c-0.219-1.127-0.329-2.388-0.329-3.783c0-3.045,0.541-5.335,1.625-6.869c1.083-1.534,2.673-2.302,4.77-2.302   c1.037,0,1.884,0.094,2.541,0.279c0.657,0.187,1.238,0.419,1.745,0.697l-0.967,3.452c-0.415-0.209-0.813-0.366-1.193-0.471   c-0.38-0.104-0.835-0.157-1.365-0.157c-0.968,0-1.693,0.425-2.177,1.273c-0.484,0.849-0.726,2.214-0.726,4.097   c0,1.581,0.247,2.872,0.743,3.871c0.495,1,1.284,1.499,2.367,1.499c0.576,0,1.066-0.075,1.469-0.227   c0.403-0.15,0.777-0.343,1.123-0.575L133.498,654.582z"/>
	<path fill="#6D6E71" d="M150.951,655.523v-10.53c0-1.256-0.144-2.162-0.432-2.721c-0.288-0.558-0.812-0.837-1.573-0.837   c-0.553,0-1.06,0.198-1.521,0.594c-0.461,0.396-0.772,0.895-0.933,1.499v11.995h-4.113v-24.409h4.113v8.543h0.104   c0.46-0.604,1.02-1.092,1.676-1.464s1.48-0.559,2.471-0.559c0.714,0,1.336,0.105,1.866,0.314s0.979,0.558,1.348,1.046   c0.368,0.488,0.645,1.146,0.83,1.97c0.185,0.826,0.277,1.866,0.277,3.121v11.438H150.951z"/>
	<path fill="#6D6E71" d="M173.452,655.523v-10.601c0-1.278-0.15-2.173-0.449-2.685c-0.3-0.512-0.807-0.768-1.521-0.768   c-0.6,0-1.118,0.187-1.556,0.559c-0.438,0.372-0.749,0.836-0.933,1.395v12.1h-4.113v-17.435h3.283l0.484,2.022h0.104   c0.415-0.675,0.979-1.25,1.694-1.727c0.714-0.476,1.647-0.715,2.8-0.715c0.691,0,1.307,0.104,1.849,0.314   c0.542,0.209,0.997,0.552,1.365,1.028s0.646,1.115,0.83,1.918c0.185,0.802,0.277,1.796,0.277,2.981v11.611H173.452z"/>
	<path fill="#6D6E71" d="M186.758,646.806c0-3.091,0.599-5.393,1.798-6.904c1.198-1.511,2.869-2.267,5.012-2.267   c2.304,0,4.021,0.768,5.149,2.302s1.694,3.824,1.694,6.869c0,3.115-0.6,5.423-1.797,6.922c-1.198,1.499-2.881,2.249-5.046,2.249   C189.028,655.977,186.758,652.92,186.758,646.806z M191.01,646.806c0,1.744,0.195,3.093,0.587,4.045   c0.392,0.954,1.048,1.43,1.971,1.43c0.875,0,1.526-0.412,1.953-1.237c0.426-0.825,0.64-2.237,0.64-4.237   c0-1.789-0.196-3.149-0.588-4.079c-0.392-0.93-1.061-1.396-2.004-1.396c-0.807,0-1.435,0.413-1.884,1.238   C191.234,643.394,191.01,644.807,191.01,646.806z"/>
	<path fill="#6D6E71" d="M213.925,649.875c0,0.813,0.08,1.395,0.242,1.743c0.161,0.349,0.426,0.522,0.795,0.522   c0.208,0,0.42-0.022,0.64-0.069c0.219-0.046,0.466-0.128,0.743-0.244l0.38,3.348c-0.276,0.187-0.749,0.36-1.417,0.523   c-0.668,0.162-1.348,0.243-2.039,0.243c-1.152,0-2.017-0.29-2.592-0.871c-0.577-0.581-0.864-1.569-0.864-2.964v-20.992h4.113   V649.875z"/>
	<path fill="#6D6E71" d="M224.501,646.806c0-3.091,0.599-5.393,1.797-6.904c1.198-1.511,2.869-2.267,5.012-2.267   c2.304,0,4.021,0.768,5.15,2.302c1.128,1.534,1.694,3.824,1.694,6.869c0,3.115-0.6,5.423-1.797,6.922   c-1.199,1.499-2.881,2.249-5.046,2.249C226.771,655.977,224.501,652.92,224.501,646.806z M228.753,646.806   c0,1.744,0.195,3.093,0.587,4.045c0.392,0.954,1.048,1.43,1.97,1.43c0.875,0,1.526-0.412,1.953-1.237   c0.426-0.825,0.639-2.237,0.639-4.237c0-1.789-0.196-3.149-0.587-4.079c-0.392-0.93-1.061-1.396-2.005-1.396   c-0.807,0-1.435,0.413-1.884,1.238S228.753,644.807,228.753,646.806z"/>
	<path fill="#6D6E71" d="M259.86,655.523c0,2.533-0.577,4.399-1.729,5.597c-1.152,1.197-2.754,1.796-4.804,1.796   c-1.429,0-2.546-0.11-3.353-0.331c-0.807-0.222-1.429-0.46-1.867-0.715l0.864-3.522c0.506,0.209,1.054,0.406,1.642,0.593   c0.587,0.187,1.284,0.279,2.091,0.279c1.175,0,1.987-0.32,2.437-0.959c0.449-0.64,0.674-1.61,0.674-2.912v-0.941h-0.104   c-0.323,0.466-0.755,0.814-1.296,1.047c-0.542,0.231-1.239,0.349-2.091,0.349c-1.821,0-3.187-0.691-4.096-2.075   c-0.911-1.383-1.365-3.574-1.365-6.573c0-3.23,0.627-5.613,1.884-7.147c1.256-1.535,3.047-2.302,5.375-2.302   c1.244,0,2.362,0.099,3.353,0.296c0.991,0.198,1.786,0.437,2.385,0.715V655.523z M253.465,652.246c0.623,0,1.112-0.151,1.469-0.454   c0.357-0.302,0.628-0.731,0.812-1.29v-8.717c-0.254-0.116-0.536-0.21-0.847-0.279c-0.312-0.07-0.674-0.104-1.089-0.104   c-0.853,0-1.516,0.418-1.987,1.255c-0.473,0.837-0.708,2.278-0.708,4.324C251.115,650.491,251.898,652.246,253.465,652.246z"/>
	<path fill="#6D6E71" d="M275.309,647.887l0.449,2.72h0.173l0.311-2.754l2.005-9.764h4.217l-4.32,15.726   c-0.392,1.372-0.761,2.604-1.106,3.696c-0.346,1.093-0.715,2.022-1.106,2.79c-0.392,0.767-0.835,1.354-1.331,1.761   c-0.496,0.406-1.089,0.61-1.78,0.61c-0.484,0-0.95-0.04-1.399-0.121s-0.835-0.214-1.158-0.397l0.691-3.526   c0.299,0.116,0.605,0.168,0.916,0.157c0.311-0.013,0.599-0.13,0.864-0.352c0.264-0.224,0.501-0.57,0.708-1.04   c0.207-0.471,0.38-1.094,0.519-1.869l-6.014-17.435h4.942L275.309,647.887z"/>
	<path fill="#6D6E71" d="M342.983,654.582c-0.576,0.465-1.269,0.813-2.075,1.046c-0.806,0.232-1.612,0.349-2.419,0.349   c-1.175,0-2.16-0.215-2.955-0.645c-0.795-0.431-1.446-1.047-1.952-1.849c-0.507-0.802-0.87-1.767-1.089-2.895   c-0.22-1.127-0.328-2.388-0.328-3.783c0-3.045,0.541-5.335,1.624-6.869s2.673-2.302,4.77-2.302c1.037,0,1.884,0.094,2.541,0.279   c0.656,0.187,1.237,0.419,1.745,0.697l-0.968,3.452c-0.415-0.209-0.812-0.366-1.193-0.471c-0.379-0.104-0.835-0.157-1.364-0.157   c-0.968,0-1.694,0.425-2.178,1.273s-0.726,2.214-0.726,4.097c0,1.581,0.247,2.872,0.742,3.871c0.496,1,1.285,1.499,2.368,1.499   c0.576,0,1.065-0.075,1.47-0.227c0.402-0.15,0.777-0.343,1.122-0.575L342.983,654.582z"/>
	<path fill="#6D6E71" d="M360.021,642.203c-0.553-0.209-1.06-0.313-1.521-0.313c-0.623,0-1.158,0.174-1.607,0.522   s-0.755,0.837-0.916,1.465v11.646h-4.113v-17.435h3.146l0.484,2.092h0.138c0.3-0.768,0.731-1.365,1.296-1.796   c0.564-0.43,1.216-0.645,1.953-0.645c0.553,0,1.094,0.116,1.625,0.349L360.021,642.203z"/>
	<path fill="#6D6E71" d="M380.656,654.233c-0.576,0.512-1.36,0.93-2.351,1.255c-0.991,0.325-2.028,0.488-3.11,0.488   c-1.198,0-2.229-0.209-3.094-0.628c-0.864-0.418-1.572-1.022-2.125-1.812s-0.963-1.749-1.228-2.877   c-0.266-1.127-0.397-2.411-0.397-3.854c0-3.138,0.616-5.457,1.849-6.956c1.232-1.5,2.944-2.249,5.133-2.249   c0.737,0,1.452,0.11,2.143,0.331c0.691,0.221,1.309,0.593,1.851,1.116c0.541,0.522,0.979,1.22,1.312,2.092s0.501,1.97,0.501,3.295   c0,0.512-0.029,1.059-0.086,1.639c-0.059,0.582-0.145,1.209-0.26,1.884h-8.398c0.046,1.441,0.345,2.545,0.898,3.312   c0.553,0.767,1.439,1.15,2.661,1.15c0.738,0,1.411-0.116,2.022-0.349c0.609-0.232,1.076-0.477,1.399-0.732L380.656,654.233z    M375.264,641.157c-0.876,0-1.532,0.354-1.97,1.063c-0.438,0.709-0.69,1.703-0.761,2.981h4.771c0.068-1.325-0.069-2.33-0.415-3.017   C376.543,641.5,376.002,641.157,375.264,641.157z"/>
	<path fill="#6D6E71" d="M390.783,639.135c0.69-0.419,1.555-0.755,2.592-1.012c1.037-0.255,2.212-0.383,3.525-0.383   c1.958,0,3.324,0.511,4.096,1.534c0.772,1.022,1.158,2.476,1.158,4.358c0,1.093-0.029,2.168-0.087,3.226   c-0.057,1.058-0.098,2.092-0.121,3.104c-0.023,1.011-0.006,1.987,0.053,2.929c0.057,0.941,0.213,1.831,0.466,2.668h-3.353   l-0.656-2.127h-0.139c-0.368,0.674-0.887,1.232-1.556,1.674c-0.668,0.44-1.509,0.662-2.522,0.662c-1.359,0-2.432-0.459-3.215-1.377   c-0.782-0.919-1.175-2.145-1.175-3.68c0-2.092,0.737-3.579,2.212-4.463c1.475-0.883,3.468-1.255,5.98-1.116   c0.114-1.348,0.027-2.324-0.26-2.929c-0.288-0.604-0.905-0.906-1.85-0.906c-0.691,0-1.405,0.081-2.143,0.244   c-0.738,0.162-1.395,0.396-1.971,0.697L390.783,639.135z M395.726,652.211c0.622,0,1.128-0.157,1.521-0.471   c0.392-0.314,0.68-0.656,0.864-1.029v-2.894c-0.53-0.07-1.037-0.081-1.521-0.035c-0.484,0.047-0.911,0.151-1.279,0.313   c-0.368,0.163-0.662,0.401-0.882,0.715c-0.219,0.314-0.328,0.715-0.328,1.203c0,0.721,0.144,1.268,0.433,1.64   C394.821,652.025,395.218,652.211,395.726,652.211z"/>
	<path fill="#6D6E71" d="M410.657,638.089h1.901v-3.278l4.113-1.29v4.568h3.352v3.696h-3.352v7.602c0,0.999,0.098,1.708,0.293,2.127   c0.195,0.418,0.547,0.627,1.054,0.627c0.346,0,0.657-0.034,0.934-0.104c0.276-0.069,0.576-0.174,0.899-0.313l0.518,3.312   c-0.506,0.256-1.094,0.471-1.763,0.646c-0.668,0.174-1.371,0.261-2.108,0.261c-1.313,0-2.298-0.383-2.955-1.15   c-0.656-0.767-0.984-2.058-0.984-3.87v-9.136h-1.901V638.089z"/>
	<path fill="#6D6E71" d="M428.939,633.172c0-0.697,0.219-1.272,0.657-1.726c0.438-0.454,1.06-0.681,1.866-0.681   s1.452,0.222,1.936,0.663s0.726,1.022,0.726,1.743s-0.242,1.29-0.726,1.709c-0.483,0.418-1.129,0.627-1.936,0.627   s-1.429-0.214-1.866-0.645C429.158,634.434,428.939,633.869,428.939,633.172z M429.389,638.089h4.114v17.435h-4.114V638.089z"/>
	<path fill="#6D6E71" d="M449.056,647.189l0.415,2.755h0.138l0.381-2.79l2.144-9.065h4.423l-5.807,17.609h-2.765l-6.117-17.609   h4.804L449.056,647.189z"/>
	<path fill="#6D6E71" d="M464.471,633.172c0-0.697,0.219-1.272,0.657-1.726c0.438-0.454,1.059-0.681,1.866-0.681   c0.806,0,1.451,0.222,1.935,0.663c0.484,0.441,0.726,1.022,0.726,1.743s-0.241,1.29-0.726,1.709   c-0.483,0.418-1.129,0.627-1.935,0.627c-0.808,0-1.429-0.214-1.866-0.645C464.689,634.434,464.471,633.869,464.471,633.172z    M464.919,638.089h4.114v17.435h-4.114V638.089z"/>
	<path fill="#6D6E71" d="M477.985,638.089h1.901v-3.278l4.112-1.29v4.568h3.353v3.696h-3.353v7.602c0,0.999,0.098,1.708,0.294,2.127   c0.195,0.418,0.547,0.627,1.054,0.627c0.346,0,0.657-0.034,0.933-0.104c0.277-0.069,0.576-0.174,0.899-0.313l0.519,3.312   c-0.507,0.256-1.094,0.471-1.763,0.646c-0.668,0.174-1.371,0.261-2.108,0.261c-1.313,0-2.298-0.383-2.955-1.15   c-0.656-0.767-0.984-2.058-0.984-3.87v-9.136h-1.901V638.089z"/>
	<path fill="#6D6E71" d="M501.901,647.887l0.45,2.72h0.172l0.312-2.754l2.005-9.764h4.217l-4.321,15.726   c-0.393,1.372-0.76,2.604-1.105,3.696s-0.715,2.022-1.106,2.79c-0.392,0.767-0.835,1.354-1.331,1.761   c-0.495,0.406-1.088,0.61-1.779,0.61c-0.483,0-0.95-0.04-1.4-0.121c-0.449-0.081-0.835-0.214-1.158-0.397l0.691-3.526   c0.3,0.116,0.605,0.168,0.917,0.157c0.311-0.013,0.598-0.13,0.863-0.352c0.266-0.224,0.501-0.57,0.709-1.04   c0.208-0.471,0.38-1.094,0.519-1.869l-6.015-17.435h4.943L501.901,647.887z"/>
	<ellipse fill="#6D6E71" cx="306.878" cy="647.197" rx="3.498" ry="3.528"/>
</g>
</svg>