<?xml version="1.0" encoding="UTF-8" standalone="no"?>
<!-- Created with Inkscape (http://www.inkscape.org/) -->
<svg xmlns:dc="http://purl.org/dc/elements/1.1/" xmlns:cc="http://creativecommons.org/ns#" xmlns:rdf="http://www.w3.org/1999/02/22-rdf-syntax-ns#" xmlns:svg="http://www.w3.org/2000/svg" xmlns="http://www.w3.org/2000/svg" xmlns:sodipodi="http://sodipodi.sourceforge.net/DTD/sodipodi-0.dtd" xmlns:inkscape="http://www.inkscape.org/namespaces/inkscape" width="744.09448819" height="1052.3622047" id="svg3163" version="1.1" inkscape:version="0.48.4 r9939" sodipodi:docname="LabitatLogoClean.svg">
  <defs id="defs3165"/>
  <sodipodi:namedview id="base" pagecolor="#ffffff" bordercolor="#666666" borderopacity="1.0" inkscape:pageopacity="0.0" inkscape:pageshadow="2" inkscape:zoom="0.92156723" inkscape:cx="628.56079" inkscape:cy="869.85436" inkscape:document-units="px" inkscape:current-layer="layer1" showgrid="false" inkscape:window-width="1920" inkscape:window-height="1165" inkscape:window-x="0" inkscape:window-y="0" inkscape:window-maximized="1"/>
  <metadata id="metadata3168">
    <rdf:RDF>
      <cc:Work rdf:about="">
        <dc:format>image/svg+xml</dc:format>
        <dc:type rdf:resource="http://purl.org/dc/dcmitype/StillImage"/>
        <dc:title/>
      </cc:Work>
    </rdf:RDF>
  </metadata>
  <g inkscape:label="Layer 1" inkscape:groupmode="layer" id="layer1">
    <g id="g3104" transform="translate(-199.17072,-250.61113)">
      <path style="fill:#83981c;fill-rule:evenodd" inkscape:connector-curvature="0" id="path3028" d="m 640.30633,514.56514 c 57.71479,14.6793 95.31189,58.0814 110.34282,83.83384 5.75596,9.86167 13.271,20.017 10.449,31.961 -1.952,8.264 -10.90684,16.80155 -16.83884,24.03655 -6.691,8.16 -12.55816,14.61945 -17.58016,20.83145 18.47139,3.7083 25.53749,4.79161 52.88399,11.71077 3.5592,0.90054 7.42548,3.80404 8.58001,6.11323 4.781,7.306 5.728,18.447 6.761,29.502 4.00426,57.07687 -14.29481,114.11638 -47.328,157.962 -9.938,9.22 -19.787,4.664 -35.033,0.614 -16.0007,-4.42063 -55.73867,-16.28666 -72.92416,-21.45584 -2.43906,24.19678 -2.8105,50.03607 -4.52084,80.79383 -1.33438,17.90235 0.6196,22.06887 -11.062,26.71001 -36.59697,15.56586 -130.66339,18.28457 -185.11812,-17.13619 -2.65661,-1.36132 -11.73493,-7.02273 -10.95088,-14.21081 1.65627,-15.00263 2.803,-19.015 4.303,-28.273 1.545,-9.543 2.44,-18.566 4.303,-27.658 l -35.649,11.678 c -6.29135,2.30542 -11.62525,3.98446 -17.27543,3.58222 -5.65019,-0.40225 -10.70254,-2.40763 -14.07157,-6.04122 -37.67429,-40.63273 -55.81447,-89.90326 -54.704,-138.289 1.334,-8.673 1.894,-18.695 7.989,-23.971 4.073,-3.523 10.2206,-5.21074 16.4376,-7.63774 18.42387,-6.74739 40.83383,-15.08743 59.7774,-21.86426 -1.316,4.624 -3.01212,9.72886 -3.072,14.751 -0.58603,49.14647 12.33411,95.4131 44.868,136.449 13.5283,-36.65485 62.62449,-34.65658 100.86768,-30.65396 20.64592,2.04138 62.74732,11.06596 87.21132,28.19496 -2.67965,-8.48143 -4.58208,-19.68826 -4.917,-25.815 -1.92886,-17.64251 1.04204,-44.02751 5.95453,-63.2069 3.44895,-15.10005 16.02953,-64.8383 42.29933,-84.34545 6.19286,-4.0743 10.59791,-6.88771 23.04209,-3.03365 -1.74722,-3.72995 -3.71228,-6.68908 -6.37358,-10.26082 -11.37978,-13.55818 -27.88535,-30.54944 -38.77576,-39.45426 -10.8904,-8.90481 -39.85304,-36.27569 -82.85275,-42.28235 14.37117,-17.1967 25.35001,-30.17854 38.75478,-45.68057 7.88131,-9.07118 15.60582,-15.3622 19.12626,-16.57572 3.52044,-1.21352 9.23053,-2.37003 15.09628,-0.87812 z" clip-rule="evenodd" sodipodi:nodetypes="sscccscccccccccccczsccccscccccccczcczs"/>
      <path style="fill:#83981c;fill-rule:evenodd" inkscape:connector-curvature="0" id="path3030" d="m 494.34615,535.70698 c 11.621,0.671 17.91914,2.87176 27.044,9.834 9.86844,8.03777 18.49422,21.5766 26.428,31.346 -43.12,4.412 -75.881,19.182 -100.801,41.795 -16.91821,15.57511 -32.25417,37.7366 -40.565,57.161 -12.81358,-16.80779 -22.70463,-26.5815 -25.14802,-47.20847 -3.36158,-28.37835 27.1598,-56.59531 44.83966,-69.60699 17.67986,-13.01169 42.27497,-23.28372 68.20236,-23.32054 z" clip-rule="evenodd" sodipodi:nodetypes="cccccszc"/>
    </g>
  </g>
</svg>